<svg width="512" height="512" xmlns="http://www.w3.org/2000/svg">

 <g>
  <title>background</title>
  <rect fill="none" id="canvas_background" height="402" width="582" y="-1" x="-1"/>
 </g>
 <g>
  <title>Layer 1</title>
  <path fill="#c1bd3e" id="svg_1" d="m130.91136,455.391c0,0 89.583,51.686 125.416,51.686c53.749,0 125.416,-51.686 125.416,-51.686c0.618,-0.665 1.143,-1.399 1.761,-2.064l-254.349,0c0.607,0.664 1.138,1.399 1.756,2.064m89.583,-418.03l0,-27.341c-55.289,11.489 -158.181,51.72 -188.422,192.474l-17.618,0c-4.934,0 -8.958,4.036 -8.958,8.958l0,35.833c0,4.922 4.024,8.958 8.958,8.958l10.2,0c-0.408,5.826 -0.67,11.81 -0.857,17.916l-9.343,0c-4.934,0 -8.958,4.036 -8.958,8.959l0,35.833c0,4.922 4.024,8.958 8.958,8.958l11.419,0c2.315,20.553 6.806,46.914 15.455,74.069l0,69.263l67.823,0c-58.066,-63.675 -58.864,-177.391 -58.864,-182.29c0,-187.389 111.202,-237.937 170.207,-251.59m53.749,-31.949l-35.833,0l0,53.534l35.833,0l0,-53.534zm17.917,59.174l0,12.276l-71.667,0l0,-12.276c-52.28,13.437 -143.333,60.375 -143.333,224.365c0,0 0.105,87.716 38.236,146.458l105.096,0l0,-17.916l71.667,0l0,17.916l105.098,0c38.131,-58.742 38.235,-146.458 38.235,-146.458c0,-163.99 -91.052,-210.928 -143.332,-224.365m-165.728,244.567c-8.264,-9.459 -13.437,-21.672 -13.437,-35.203c0,-13.554 5.173,-25.772 13.437,-35.22l0,70.423zm35.833,-52.233c-7.669,2.036 -13.438,8.713 -13.438,17.03c0,8.294 5.768,14.978 13.438,17.007l0,36.276c-9.985,-0.828 -19.194,-4.246 -26.875,-9.798l0,-86.993c7.681,-5.552 16.89,-8.958 26.875,-9.804l0,36.282zm35.833,60.516c-7.681,5.552 -16.89,8.97 -26.875,9.798l0,-36.276c7.669,-2.029 13.438,-8.713 13.438,-17.007c0,-8.316 -5.768,-14.994 -13.438,-17.03l0,-36.282c9.985,0.846 19.194,4.252 26.875,9.804l0,86.993zm8.959,-8.283l0,-70.423c8.264,9.448 13.437,21.667 13.437,35.22c0,13.531 -5.173,25.744 -13.437,35.203m49.27,36.674l-35.833,17.916l35.833,-35.833l35.833,35.833l-35.833,-17.916zm49.271,-36.674c-8.271,-9.459 -13.438,-21.672 -13.438,-35.203c0,-13.554 5.167,-25.772 13.438,-35.22l0,70.423zm35.833,-52.233c-7.664,2.036 -13.438,8.713 -13.438,17.03c0,8.294 5.773,14.978 13.438,17.007l0,36.276c-9.984,-0.828 -19.2,-4.246 -26.875,-9.798l0,-86.993c7.675,-5.552 16.891,-8.958 26.875,-9.804l0,36.282zm35.833,60.516c-7.675,5.552 -16.89,8.97 -26.875,9.798l0,-36.276c7.664,-2.029 13.438,-8.713 13.438,-17.007c0,-8.316 -5.773,-14.994 -13.438,-17.03l0,-36.282c9.985,0.846 19.2,4.252 26.875,9.804l0,86.993zm8.958,-8.283l0,-70.423c8.271,9.448 13.438,21.667 13.438,35.22c-0.001,13.531 -5.168,25.744 -13.438,35.203m120.937,-61.867l0,-35.833c0,-4.922 -4.024,-8.958 -8.959,-8.958l-17.613,0c-30.246,-140.755 -133.138,-180.986 -188.427,-192.475l0,27.341c59.01,13.653 170.207,64.201 170.207,251.59c0,4.898 -0.793,118.615 -58.858,182.291l67.816,0l0,-69.263c8.644,-27.155 13.135,-53.517 15.456,-74.069l11.419,0c4.935,0 8.959,-4.036 8.959,-8.958l0,-35.833c0,-4.923 -4.024,-8.959 -8.959,-8.959l-9.343,0c-0.187,-6.106 -0.455,-12.09 -0.852,-17.916l10.194,0c4.936,0 8.96,-4.036 8.96,-8.958"/>
 </g>
</svg>